# xmcd CD database file
#
# Track frame offsets:
#	150
#	17487
#	44585
#	71002
#	107122
#	126930
#	144577
#	172512
#	218200
#	239352
#
# Disc length: 3439 seconds
#
# Revision: 2
# Processed by: cddbd v1.5.2PL0 Copyright (c) Steve Scherf et al.
# Submitted via: CDex 1.70beta2
#
DISCID=8a0d6d0a
DTITLE=Rick Derringer - Electra Blues
DYEAR=1994
DGENRE=Blues /Rock
TTITLE0=I Got Something To Say
TTITLE1=Unsung Hero Of The Blues
TTITLE2=Electra Blues
TTITLE3=If It's The Blues
TTITLE4=Firebrand Rebel
TTITLE5=Blue Boogie
TTITLE6=You Can't Be Everywhere At Once
TTITLE7=All I Want To Do Is Cry
TTITLE8=Deeper In The Blues
TTITLE9=You Don't Miss What
EXTD=YEAR: 1994
EXTT0=
EXTT1=
EXTT2=
EXTT3=
EXTT4=
EXTT5=
EXTT6=
EXTT7=
EXTT8=
EXTT9=
PLAYORDER=
